<svg xmlns="http://www.w3.org/2000/svg" viewBox="0 0 126.5 110.2">
    <style>.st0{fill:#ffffff}.st1{fill:#ffffff}.st2{fill:#ffffff}</style>
    <path class="st0"
          d="M95.4 78.8c0-1.8-1.1-3.4-2.7-4.2l-3.3-1.5-5.4-2.3C79.1 77 71.5 81.1 63 81.1s-16.1-4-21-10.3l-5.3 2.4-3.4 1.5c-1.6.7-2.7 2.4-2.7 4.2v27.6c0 2.3 2 3.8 4.1 3.8.9 0 1.7-.3 2.5-.9l23.4-18.1c.7-.6 1.6-.9 2.5-.9s1.8.3 2.5.9L89 109.4c.8.6 1.6.9 2.5.9 2.1 0 4-1.5 4.1-3.8v-.1l-.2-27.6z"/>
    <path class="st1"
          d="M57.9 14.1L34 .5h-.1c-.6-.4-1.2-.5-1.8-.5-2.3 0-4.4 2.1-4 4.7l4.2 29.2c.3 1.8-.8 3.6-2.5 4.4L2.5 49.7c-3 1.3-3.5 5.5-.6 7.2H2l23.9 13.5c.7.4 1.5.6 2.3.6 1 0 1.9-.3 2.7-.9l2.9-2.1 4.8-3.5c-3-7.3-2.8-15.9 1.4-23.3 4.2-7.4 11.5-12 19.3-13.2l.6-5.9.3-3.6c.1-1.8-.8-3.5-2.3-4.4"/>
    <path class="st2"
          d="M124 49.7L96.7 38.3c-1.7-.7-2.7-2.5-2.5-4.4l4.2-29.2c.4-2.6-1.7-4.7-4-4.7-.6 0-1.2.1-1.8.5h-.1L68.6 14.1c-1.6.9-2.5 2.6-2.3 4.4l.4 3.6.6 5.8c7.8 1.2 15.1 5.8 19.3 13.2 4.2 7.4 4.5 16 1.4 23.3l4.5 3.3 3.2 2.3c.8.6 1.8.9 2.7.9.8 0 1.6-.2 2.3-.6l23.9-13.5h.1c2.7-1.6 2.3-5.9-.7-7.1"/>
</svg>
