<svg xmlns="http://www.w3.org/2000/svg" viewBox="-10 0 150 140">
	<path fill="#FFFFFF" d="M66.331,1.811c36.297,0,65.704,29.406,65.704,65.674c0,36.298-29.406,65.704-65.704,65.704
	c-36.268,0-65.674-29.406-65.674-65.704C0.657,31.217,30.063,1.811,66.331,1.811z M120.361,67.485
	c0-29.822-24.178-54.001-54.03-54.001c-29.822,0-54.001,24.179-54.001,54.001c0,29.852,24.179,54.03,54.001,54.03
	C96.183,121.516,120.361,97.337,120.361,67.485z"/>
	<path fill-rule="evenodd" clip-rule="evenodd" fill="#FFFFFF" d="M25.991,51.205c0-6.812,5.518-12.336,12.336-12.336
	c6.812,0,12.343,5.524,12.343,12.336c0,6.818-5.531,12.337-12.343,12.337C31.509,63.542,25.991,58.023,25.991,51.205z"/>
	<path fill-rule="evenodd" clip-rule="evenodd" fill="#FFFFFF" d="M81.484,51.205c0-6.812,5.517-12.336,12.335-12.336
	c6.812,0,12.329,5.524,12.329,12.336c0,6.818-5.518,12.337-12.329,12.337C87.001,63.542,81.484,58.023,81.484,51.205z"/>
</svg>
